<?xml version="1.0" encoding="UTF-8"?>
<!DOCTYPE svg PUBLIC "-//W3C//DTD SVG 1.1//EN" "http://www.w3.org/Graphics/SVG/1.1/DTD/svg11.dtd">
<!-- Creator: CorelDRAW -->
<svg xmlns="http://www.w3.org/2000/svg" xml:space="preserve" width="24in" height="11in" style="shape-rendering:geometricPrecision; text-rendering:geometricPrecision; image-rendering:optimizeQuality; fill-rule:evenodd; clip-rule:evenodd"
viewBox="0 0 24 11"
 xmlns:xlink="http://www.w3.org/1999/xlink">
 <defs>
  <style type="text/css">
   <![CDATA[
    .str0 {stroke:#1F1A17;stroke-width:0.003}
    .str1 {stroke:#1F1A17;stroke-width:0.003}
    .str2 {stroke:#DA251D;stroke-width:0.003}
    .fil0 {fill:none}
    .fil1 {fill:none;fill-rule:nonzero}
    .fil2 {fill:#1F1A17;fill-rule:nonzero}
   ]]>
  </style>
 </defs>
 <g id="Layer_x0020_1">
  <metadata id="CorelCorpID_0Corel-Layer"/>
  <g id="_42497480">
   <g>
    <polygon id="_42249600" class="fil0 str0" points="3.0429,9.24183 3.2929,9.24183 3.2929,7.60089 3.4179,7.60089 3.4179,9.24363 7.1679,9.24363 7.1679,7.60089 7.2929,7.60089 7.2929,9.24182 7.5429,9.24182 7.5429,5.9591 3.0429,5.9591 "/>
    <rect id="_42484696" class="fil0 str0" x="3.91544" y="6.84289" width="2.75591" height="1.49606"/>
   </g>
   <circle id="_42485824" class="fil0 str0" cx="3.56103" cy="6.31176" r="0.0625"/>
   <circle id="_42487960" class="fil0 str0" cx="7.02559" cy="6.31176" r="0.0625"/>
   <circle id="_42487880" class="fil0 str0" cx="7.02559" cy="8.87082" r="0.0625"/>
   <circle id="_42489648" class="fil0 str0" cx="3.56097" cy="8.87082" r="0.0625"/>
  </g>
  <path class="fil1 str1" d="M1.72283 7.7424c1.5748e-005,-0.0552283 0.0447992,-0.0999764 0.100008,-0.0999764 0.0552205,0 0.0999921,0.044748 0.0999921,0.0999764 0,0.0552441 -0.0447717,0.100008 -0.0999843,0.100008 -0.0552283,0 -0.100016,-0.0447638 -0.100016,-0.100008"/>
  <path class="fil1 str1" d="M1.72283 7.351c1.5748e-005,-0.0552126 0.0447992,-0.0999646 0.100008,-0.0999646 0.0552205,0 0.0999921,0.044752 0.0999921,0.0999646 0,0.0552362 -0.0447717,0.0999961 -0.0999843,0.0999961 -0.0552283,0 -0.100016,-0.0447598 -0.100016,-0.0999961"/>
  <path class="fil1 str1" d="M1.72283 6.96136c1.5748e-005,-0.0552244 0.0447874,-0.0999764 0.100008,-0.0999764 0.0551969,0 0.0999921,0.044752 0.0999921,0.0999764 -2.3622e-005,0.055248 -0.0447717,0.1 -0.0999843,0.1 -0.0552283,0 -0.100016,-0.0447717 -0.100016,-0.1"/>
  <polygon class="fil0 str0" points="2.92281,9.24421 2.92281,5.9608 2.67279,5.96126 2.6728,7.60538 2.54781,7.60538 2.54781,5.95981 1.83419,5.9598 1.38127,5.95857 0.0571654,6.75808 0.0571654,8.44593 1.38298,9.24756 1.38058,7.59546 1.50556,7.59549 1.50677,9.25061 "/>
  <polygon class="fil0 str0" points="7.65716,9.24421 7.65716,5.9608 7.90719,5.96126 7.90717,7.60644 8.03216,7.60644 8.03216,5.95981 8.74579,5.9598 9.19871,5.95857 10.5228,6.75808 10.5228,8.44593 9.197,9.24756 9.1994,7.59208 9.07441,7.59211 9.0732,9.25061 "/>
  <circle class="fil0 str0" cx="8.76855" cy="8.29132" r="0.105"/>
  <circle class="fil0 str0" cx="8.6788" cy="7.52132" r="0.02"/>
  <circle class="fil0 str0" cx="8.6788" cy="8.02132" r="0.02"/>
  <circle class="fil0 str0" cx="8.9288" cy="7.77132" r="0.02"/>
  <circle class="fil0 str0" cx="8.4288" cy="7.77132" r="0.02"/>
  <ellipse class="fil0 str0" transform="matrix(-1.0808 -1.0808 -0.99766 0.99766 8.85558 7.59454)" rx="0.0130866" ry="0.0141772"/>
  <ellipse class="fil0 str0" transform="matrix(-1.0808 -1.0808 -0.99766 0.99766 8.50202 7.9481)" rx="0.0130866" ry="0.0141772"/>
  <ellipse class="fil0 str0" transform="matrix(-1.0808 -1.0808 -0.99766 0.99766 8.85558 7.9481)" rx="0.0130866" ry="0.0141772"/>
  <ellipse class="fil0 str0" transform="matrix(-1.0808 -1.0808 -0.99766 0.99766 8.50202 7.59454)" rx="0.0130866" ry="0.0141772"/>
  <ellipse class="fil0 str0" transform="matrix(-1.41176 -0.58477 -0.539788 1.30316 8.74975 7.60004)" rx="0.0130866" ry="0.0141772"/>
  <ellipse class="fil0 str0" transform="matrix(-1.41158 -0.584713 -0.539717 1.30304 8.51155 7.70204)" rx="0.0130866" ry="0.0141772"/>
  <ellipse class="fil0 str0" transform="matrix(-1.41176 -0.58477 -0.539788 1.30316 8.60785 7.9426)" rx="0.0130866" ry="0.0141772"/>
  <ellipse class="fil0 str0" transform="matrix(-1.41158 -0.584713 -0.539717 1.30304 8.84605 7.8406)" rx="0.0130866" ry="0.0141772"/>
  <ellipse class="fil0 str0" transform="matrix(-1.41176 0.58477 0.539788 1.30316 8.60785 7.60004)" rx="0.0130866" ry="0.0141772"/>
  <ellipse class="fil0 str0" transform="matrix(-1.41171 0.58477 0.53977 1.30316 8.51155 7.8406)" rx="0.0130866" ry="0.0141772"/>
  <ellipse class="fil0 str0" transform="matrix(-1.41176 0.58477 0.539788 1.30316 8.74975 7.9426)" rx="0.0130866" ry="0.0141772"/>
  <ellipse class="fil0 str0" transform="matrix(-1.41171 0.58477 0.53977 1.30316 8.84605 7.70204)" rx="0.0130866" ry="0.0141772"/>
  <circle class="fil0 str0" cx="8.6788" cy="7.65632" r="0.02"/>
  <circle class="fil0 str0" cx="8.5638" cy="7.77132" r="0.02"/>
  <circle class="fil0 str0" cx="8.6788" cy="7.88632" r="0.02"/>
  <circle class="fil0 str0" cx="8.7938" cy="7.77132" r="0.02"/>
  <ellipse class="fil0 str0" transform="matrix(-1.0808 -1.0808 -0.99766 0.99766 8.76012 7.69)" rx="0.0130866" ry="0.0141772"/>
  <ellipse class="fil0 str0" transform="matrix(-1.0808 -1.0808 -0.99766 0.99766 8.59748 7.69)" rx="0.0130866" ry="0.0141772"/>
  <ellipse class="fil0 str0" transform="matrix(-1.0808 -1.0808 -0.99766 0.99766 8.59748 7.85264)" rx="0.0130866" ry="0.0141772"/>
  <ellipse class="fil0 str0" transform="matrix(-1.0808 -1.0808 -0.99766 0.99766 8.76012 7.85264)" rx="0.0130866" ry="0.0141772"/>
  <ellipse class="fil0 str0" transform="matrix(-1.41158 -0.584694 -0.539717 1.30299 8.67803 7.7691)" rx="0.0130866" ry="0.0141772"/>
  <polygon class="fil0 str0" points="3.41954,1.27042 7.16817,1.27042 7.16817,1.66843 7.29276,1.66858 7.29248,1.92006 7.16864,1.9204 7.16817,2.31998 5.41664,2.32007 5.41638,2.38935 5.16982,2.38938 5.16989,2.32109 3.41954,2.31733 3.41954,1.91723 3.29794,1.91723 3.29674,1.66764 3.41954,1.66848 "/>
  <polygon class="fil0 str0" points="7.5429,2.56091 7.2929,2.56091 7.2929,4.20184 7.1679,4.20184 7.1679,2.5591 3.4179,2.5591 3.4179,4.20184 3.2929,4.20184 3.2929,2.56091 3.0429,2.56091 3.0429,5.84363 7.5429,5.84363 "/>
  <circle class="fil0 str0" cx="7.02477" cy="2.91176" r="0.0625"/>
  <circle class="fil0 str0" cx="3.5602" cy="2.91176" r="0.0625"/>
  <circle class="fil0 str0" cx="3.5602" cy="5.47082" r="0.0625"/>
  <circle class="fil0 str0" cx="7.02483" cy="5.47082" r="0.0625"/>
  <rect class="fil0 str2" x="4.95749" y="3.26065" width="0.795488" height="0.191445"/>
  <rect class="fil0 str2" x="4.70683" y="4.59957" width="0.3" height="0.5"/>
  <rect class="fil0 str0" x="5.1679" y="2.65705" width="0.25" height="0.12"/>
  <rect class="fil0 str0" x="1.90182" y="6.05645" width="0.25" height="0.12"/>
  <rect class="fil0 str0" x="8.42882" y="6.05645" width="0.25" height="0.12"/>
  <rect class="fil0 str0" x="1.90182" y="9.01623" width="0.25" height="0.12"/>
  <rect class="fil0 str0" x="8.42829" y="9.01623" width="0.25" height="0.12"/>
  <polygon class="fil0 str0" points="3.41954,0.120417 7.16817,0.120417 7.16817,0.518425 7.29276,0.518583 7.29248,0.770055 7.16864,0.770402 7.16817,1.16998 3.41954,1.16733 3.41954,0.767228 3.29794,0.767228 3.29674,0.517642 3.41954,0.518484 "/>
  <path class="fil2" d="M4.6173 4.6719l-0.0109803 0 0 -0.07c-0.00264567,0.00251969 -0.00610236,0.00504331 -0.0103937,0.00756299 -0.00431496,0.00251969 -0.00816929,0.00441732 -0.0115866,0.00566535l0 -0.0106024c0.00614961,-0.00289764 0.0115236,-0.00639764 0.016126,-0.0105 0.00458268,-0.00412598 0.00785433,-0.0081063 0.00977165,-0.0119803l0.00706299 0 0 0.0898543z"/>
  <path class="fil2" d="M4.75932 3.38559l-0.010185 0 0 -0.0894803 0.0109764 0 0 0.0319173c0.00464567,-0.00581102 0.010563,-0.00872835 0.017752,-0.00872835 0.004,0 0.00777165,0.000811024 0.0113346,0.00241732 0.00355906,0.00160236 0.00647638,0.00387402 0.00879134,0.00677165 0.00229134,0.00291339 0.00410236,0.00641339 0.0053937,0.0105394 0.00131496,0.0041063 0.00196063,0.0085 0.00196063,0.0131654 0,0.011126 -0.00275197,0.0197087 -0.00825197,0.0257717 -0.00548031,0.00606299 -0.0120827,0.00908268 -0.0197717,0.00908268 -0.00764567,0 -0.0136457,-0.00318504 -0.018,-0.00958268l0 0.00812598zm-0.000122047 -0.0328976c0,0.00777165 0.00105906,0.013378 0.00316535,0.0168346 0.00345669,0.00566535 0.00814567,0.0085 0.0140394,0.0085 0.00481496,0 0.00896063,-0.00208268 0.0124606,-0.00627165 0.0035,-0.00416535 0.00524803,-0.010374 0.00524803,-0.0186457 0,-0.00845669 -0.00168504,-0.0147087 -0.00503937,-0.0187283 -0.00335433,-0.00401969 -0.00741732,-0.00604331 -0.0121693,-0.00604331 -0.00481102,0 -0.00895669,0.00208661 -0.0124567,0.00625197 -0.0035,0.00416535 -0.00524803,0.0102087 -0.00524803,0.0181024z"/>
  <polygon id="1" class="fil2" points="4.81846,3.38559 4.81846,3.29611 4.82944,3.29611 4.82944,3.38559 "/>
  <polygon id="12" class="fil2" points="4.84653,3.38559 4.84653,3.29611 4.85753,3.29611 4.85753,3.34713 4.88353,3.32078 4.89774,3.32078 4.87296,3.34481 4.90026,3.38559 4.88669,3.38559 4.86528,3.35244 4.85753,3.3599 4.85753,3.38559 "/>
  <path class="fil2" d="M5.79717 3.39096l0.010689 0.00158268c0.000437008,0.00329528 0.00168504,0.00568898 0.00370866,0.00720866 0.00272835,0.00202362 0.00645669,0.00304331 0.0111654,0.00304331 0.0051063,0 0.00901969,-0.00101969 0.0117913,-0.00304331 0.00277165,-0.00203937 0.00462598,-0.0048937 0.0056063,-0.00853937 0.000582677,-0.00225197 0.000830709,-0.00693701 0.000791339,-0.0141063 -0.00479134,0.00564567 -0.0107717,0.00848031 -0.017937,0.00848031 -0.00891732,0 -0.015815,-0.00320866 -0.020689,-0.00964567 -0.00487402,-0.00641732 -0.00733465,-0.0141457 -0.00733465,-0.023126 0,-0.00618504 0.00112598,-0.0118937 0.00335433,-0.017126 0.00225197,-0.00522835 0.0055,-0.00926772 0.00975197,-0.012122 0.00424803,-0.00283465 0.00924803,-0.00427165 0.0149764,-0.00427165 0.00764961,0 0.0139606,0.00310236 0.0189173,0.00929134l0 -0.00781102 0.0101457 0 0 0.0560197c0,0.0100827 -0.00103937,0.017248 -0.00308268,0.0214567 -0.00206299,0.00420866 -0.00531102,0.00754331 -0.00977165,0.00998031 -0.00445669,0.00243701 -0.00993701,0.00366535 -0.0164567,0.00366535 -0.00772835,0 -0.0139803,-0.00174803 -0.0187283,-0.00522835 -0.00477165,-0.00348031 -0.00706299,-0.00870866 -0.00689764,-0.0157087zm0.00908268 -0.038937c0,0.0085 0.00168898,0.0147087 0.00508661,0.0186063 0.00337402,0.00391339 0.00760236,0.00585433 0.012685,0.00585433 0.00504331,0 0.00927165,-0.00194094 0.012689,-0.00581496 0.00341732,-0.0038937 0.00512598,-0.00998031 0.00512598,-0.0182913 0,-0.00793701 -0.00175197,-0.0139173 -0.00527165,-0.017937 -0.00352362,-0.00401969 -0.00777165,-0.00604331 -0.0127283,-0.00604331 -0.00487795,0 -0.00902362,0.00198031 -0.0124606,0.00596063 -0.00341732,0.00395669 -0.00512598,0.00985433 -0.00512598,0.0176654z"/>
  <path id="1" class="fil2" d="M5.86859 3.38559l0 -0.064811 0.00987402 0 0 0.00981102c0.00251969,-0.00458268 0.00485433,-0.00762598 0.007,-0.00908268 0.00212598,-0.00146063 0.00448031,-0.00220866 0.00704331,-0.00220866 0.00370866,0 0.00745669,0.00118898 0.0112913,0.00353937l-0.00379134 0.0102087c-0.00266929,-0.00160236 -0.00535433,-0.0023937 -0.00804331,-0.0023937 -0.00241732,0 -0.00456299,0.000728346 -0.00648031,0.00216535 -0.00191732,0.00146063 -0.00326772,0.00346063 -0.00408268,0.00601969 -0.00122835,0.00389764 -0.00183465,0.00816929 -0.00183465,0.012815l0 0.033937 -0.0109764 0z"/>
  <path id="12" class="fil2" d="M5.91034 3.38559l0 -0.064811 0.00987402 0 0 0.00920866c0.00477165,-0.00712598 0.0116457,-0.010689 0.020626,-0.010689 0.00391339,0 0.0075,0.000708661 0.0107677,0.00210236 0.00329134,0.00141732 0.00573228,0.00325197 0.00735433,0.00554331 0.00164567,0.00227165 0.00277165,0.00498031 0.00343701,0.00810236 0.000397638,0.00204331 0.000606299,0.0056063 0.000606299,0.010689l0 0.0398543 -0.011 0 0 -0.039437c0,-0.00446063 -0.000417323,-0.00781496 -0.00127165,-0.0100433 -0.000854331,-0.00220866 -0.00237402,-0.00397638 -0.00454331,-0.00529134 -0.00218504,-0.00133071 -0.00472835,-0.002 -0.00766535,-0.002 -0.00468504,0 -0.00870866,0.0015 -0.012126,0.00446063 -0.0033937,0.00297638 -0.00508268,0.00860236 -0.00508268,0.0169134l0 0.0353976 -0.0109764 0z"/>
  <polygon class="fil2" points="5.16233,3.23193 5.16233,3.11263 5.24283,3.11263 5.24283,3.12671 5.17814,3.12671 5.17814,3.16365 5.23411,3.16365 5.23411,3.17774 5.17814,3.17774 5.17814,3.23193 "/>
  <polygon id="1" class="fil2" points="5.29369,3.23193 5.29369,3.12671 5.25439,3.12671 5.25439,3.11263 5.34894,3.11263 5.34894,3.12671 5.30947,3.12671 5.30947,3.23193 "/>
  <path id="12" class="fil2" d="M5.36513 3.23193l0 -0.119303 0.0410827 0c0.00927559,0 0.0163583,0.000582677 0.021248,0.00172047 0.00683465,0.00155512 0.0126693,0.00441732 0.0175,0.00852756 0.00627953,0.00533465 0.011,0.0121102 0.0141102,0.0203898 0.00314173,0.00827559 0.00469685,0.0177205 0.00469685,0.0283622 0,0.00905512 -0.00105512,0.0170827 -0.00319685,0.0240827 -0.00211024,0.007 -0.00480315,0.0128031 -0.0081378,0.0173858 -0.00330315,0.00458661 -0.00691732,0.00819685 -0.0108622,0.0108071 -0.00391339,0.0026378 -0.00866535,0.0046378 -0.0142205,0.006 -0.00558268,0.0013622 -0.0119724,0.00202756 -0.0191654,0.00202756l-0.0430551 0zm0.0157756 -0.0140827l0.0254724 0c0.0078622,0 0.0140551,-0.000724409 0.0185276,-0.00219685 0.00447244,-0.0014685 0.00802756,-0.00352756 0.0106969,-0.00619291 0.00374803,-0.00372047 0.00666535,-0.00877559 0.00874803,-0.0150827 0.00208268,-0.00633465 0.0031378,-0.0139724 0.0031378,-0.023 0,-0.0124724 -0.00205512,-0.0220551 -0.0061378,-0.028748 -0.00411024,-0.00672441 -0.00908268,-0.0111969 -0.0149449,-0.0134724 -0.00422047,-0.00164173 -0.0110551,-0.00244488 -0.0204173,-0.00244488l-0.0250827 0 0 0.0911378z"/>
  <polygon id="123" class="fil2" points="5.48819,3.23193 5.48819,3.11263 5.50396,3.11263 5.50396,3.23193 "/>
  <path class="fil2" d="M2.01741 7.38254l0.0144724 -0.00227559c0.000807087,0.00580315 0.00308268,0.010248 0.00680709,0.0133622 0.00369291,0.00308268 0.00888976,0.0046378 0.0155827,0.0046378 0.00672047,0 0.0117205,-0.00138976 0.0149724,-0.00411024 0.00324803,-0.00275197 0.00488976,-0.00597244 0.00488976,-0.00964173 0,-0.00333071 -0.00144488,-0.00591339 -0.00433465,-0.00783071 -0.002,-0.00130709 -0.007,-0.00294488 -0.0149724,-0.00494488 -0.0107205,-0.00272441 -0.0181929,-0.00505512 -0.0223346,-0.00705512 -0.0041378,-0.00197244 -0.00730315,-0.00472441 -0.00944094,-0.00822441 -0.00214173,-0.0035 -0.00322441,-0.00735827 -0.00322441,-0.0115827 0,-0.0038622 0.000889764,-0.00741732 0.00266535,-0.0106929 0.00175197,-0.00330709 0.00416929,-0.00602756 0.00719685,-0.00819685 0.00227559,-0.00166535 0.00538976,-0.00311024 0.00930315,-0.00427559 0.00394488,-0.00116535 0.00816929,-0.00175197 0.0126693,-0.00175197 0.00677559,0 0.0127205,0.001 0.0178583,0.00294488 0.00514173,0.00194488 0.00891732,0.00458268 0.0113622,0.00791732 0.00244488,0.0033622 0.00411024,0.00780709 0.00502756,0.0133898l-0.0143031 0.00197244c-0.000669291,-0.00444488 -0.00255906,-0.00791732 -0.00566929,-0.0104173 -0.00311024,-0.0025 -0.00752756,-0.00375197 -0.0132205,-0.00375197 -0.00672441,0 -0.0115276,0.00111417 -0.0143898,0.00333465 -0.00288976,0.00222441 -0.00433465,0.00483465 -0.00433465,0.00780709 0,0.00191732 0.000614173,0.00361024 0.00180709,0.0051378 0.00119291,0.00158268 0.00305512,0.0028622 0.00561024,0.00391732 0.00147244,0.000527559 0.00577953,0.00177559 0.0129449,0.00372047 0.0103622,0.00277953 0.0175827,0.00502756 0.0216654,0.00680709 0.00411417,0.00174803 0.00733465,0.00433465 0.00966929,0.00769291 0.00233071,0.0033622 0.0035,0.00752756 0.0035,0.0125276 0,0.00488976 -0.00144488,0.00947244 -0.00427953,0.0138071 -0.0028622,0.00430315 -0.00697244,0.0076378 -0.0123346,0.01 -0.00535827,0.0023622 -0.0114409,0.00352756 -0.0182205,0.00352756 -0.011248,0 -0.0198031,-0.00233465 -0.0256929,-0.007 -0.00588976,-0.00466535 -0.00964173,-0.0115827 -0.011252,-0.020752z"/>
  <path id="1" class="fil2" d="M2.16574 7.38051l0.0151378 0.0018622c-0.00238583,0.0088622 -0.00680315,0.0157244 -0.013248,0.0206102 -0.00647244,0.0048622 -0.0147244,0.00730709 -0.024752,0.00730709 -0.0126378,0 -0.0226654,-0.00388976 -0.0300551,-0.0116654 -0.00741339,-0.00777953 -0.0111102,-0.0186969 -0.0111102,-0.032752 0,-0.0145551 0.00375197,-0.0258307 0.0112244,-0.0338622 0.0075,-0.00802756 0.0171929,-0.0120551 0.0291378,-0.0120551 0.0115551,0 0.021,0.00394488 0.0283031,0.0118071 0.00733465,0.0078622 0.011,0.0189449 0.011,0.0331929 0,0.000889764 -2.75591e-005,0.00219685 -8.26772e-005,0.00391732l-0.0644449 0c0.000531496,0.0095 0.00322441,0.0167795 0.00805906,0.0218071 0.00483071,0.00505512 0.0108307,0.00758268 0.0180551,0.00758268 0.00535827,0 0.00994094,-0.00141732 0.013748,-0.00425197 0.00380709,-0.00280315 0.00680709,-0.00730315 0.00902756,-0.0135zm-0.0480827 -0.0236929l0.048248 0c-0.000637795,-0.00724803 -0.0025,-0.0127205 -0.00552756,-0.0163346 -0.00466535,-0.0056378 -0.0107205,-0.00847244 -0.0181378,-0.00847244 -0.00672047,0 -0.0123898,0.00225197 -0.0169724,0.00675197 -0.00458268,0.0045 -0.00711024,0.0105276 -0.00761024,0.0180551z"/>
  <path id="12" class="fil2" d="M2.23127 7.39524l0.00211024 0.0129449c-0.00411024,0.000858268 -0.00780709,0.00130315 -0.0110551,0.00130315 -0.00533465,0 -0.00944488,-0.000830709 -0.0123898,-0.00252756 -0.00291732,-0.00166535 -0.00497244,-0.00388976 -0.00616535,-0.0066378 -0.00119291,-0.00272047 -0.00180709,-0.0085 -0.00180709,-0.0172795l0 -0.0497205 -0.010748 0 0 -0.0113898 0.010748 0 0 -0.0214134 0.0145827 -0.00877953 0 0.0301929 0.0147244 0 0 0.0113898 -0.0147244 0 0 0.0505276c0,0.00419291 0.000251969,0.0068622 0.000751969,0.00805512 0.000527559,0.00119685 0.0013622,0.0021378 0.00252756,0.0028622 0.00116535,0.000692913 0.00283465,0.00105512 0.005,0.00105512 0.0016378,0 0.00377953,-0.000192913 0.00644488,-0.000582677z"/>
  <path class="fil2" d="M2.03136 7.78564l0 -0.0864173 0.0130827 0 0 0.0121142c0.00272441,-0.00422441 0.00633465,-0.00764173 0.0108346,-0.0101969 0.0045,-0.00258268 0.0096378,-0.00388976 0.0153898,-0.00388976 0.00638583,0 0.0116378,0.00133465 0.0157205,0.004 0.00411024,0.00266929 0.007,0.0063622 0.00866535,0.0111417 0.0068622,-0.0100866 0.015752,-0.0151417 0.0266969,-0.0151417 0.00858268,0 0.0151654,0.00238976 0.0197756,0.00714173 0.00461024,0.00474803 0.00691732,0.0120551 0.00691732,0.0219134l0 0.0593346 -0.0145551 0 0 -0.0544449c0,-0.00585827 -0.000472441,-0.0100827 -0.00141732,-0.0126654 -0.000972441,-0.00255512 -0.00269291,-0.0046378 -0.00516535,-0.00622441 -0.0025,-0.00155512 -0.00544488,-0.00235827 -0.00880709,-0.00235827 -0.00608268,0 -0.0111102,0.00202756 -0.0151378,0.00608268 -0.004,0.00402756 -0.00602756,0.0105 -0.00602756,0.0193898l0 0.0502205 -0.0146378 0 0 -0.0561378c0,-0.00652756 -0.00119685,-0.0114173 -0.00358661,-0.0146654 -0.00238583,-0.00325197 -0.00627559,-0.00488976 -0.0117205,-0.00488976 -0.00411024,0 -0.00791732,0.00108268 -0.0114173,0.00327559 -0.0035,0.00216929 -0.00605512,0.00533465 -0.00761024,0.0095 -0.00158268,0.00419685 -0.0023622,0.0102244 -0.0023622,0.0180827l0 0.0448346 -0.0146378 0z"/>
  <path id="1" class="fil2" d="M2.22933 7.7578l0.0151378 0.0018622c-0.00238583,0.0088622 -0.00680315,0.0157244 -0.013248,0.0206102 -0.00647244,0.0048622 -0.0147244,0.00730709 -0.024752,0.00730709 -0.0126378,0 -0.0226654,-0.00388976 -0.0300551,-0.0116654 -0.00741339,-0.00777953 -0.0111102,-0.0186969 -0.0111102,-0.032752 0,-0.0145551 0.00375197,-0.0258307 0.0112244,-0.0338622 0.0075,-0.00802756 0.0171929,-0.0120551 0.0291378,-0.0120551 0.0115551,0 0.021,0.00394488 0.0283031,0.0118071 0.00733465,0.0078622 0.011,0.0189449 0.011,0.0331929 0,0.000889764 -2.75591e-005,0.00219685 -8.26772e-005,0.00391732l-0.0644449 0c0.000531496,0.0095 0.00322441,0.0167795 0.00805906,0.0218071 0.00483071,0.00505512 0.0108307,0.00758268 0.0180551,0.00758268 0.00535827,0 0.00994094,-0.00141732 0.013748,-0.00425197 0.00380709,-0.00280315 0.00680709,-0.00730315 0.00902756,-0.0135zm-0.0480827 -0.0236929l0.048248 0c-0.000637795,-0.00724803 -0.0025,-0.0127205 -0.00552756,-0.0163346 -0.00466535,-0.0056378 -0.0107205,-0.00847244 -0.0181378,-0.00847244 -0.00672047,0 -0.0123898,0.00225197 -0.0169724,0.00675197 -0.00458268,0.0045 -0.00711024,0.0105276 -0.00761024,0.0180551z"/>
  <path id="12" class="fil2" d="M2.26288 7.78564l0 -0.0864173 0.0131654 0 0 0.0122795c0.0063622,-0.0095 0.0155276,-0.014252 0.0275,-0.014252 0.00522441,0 0.01,0.000944882 0.0143622,0.00280709 0.00438976,0.00188976 0.0076378,0.00433465 0.00980709,0.00738976 0.00219291,0.00302756 0.00369291,0.0066378 0.00458268,0.0108031 0.000527559,0.00272441 0.00080315,0.00747244 0.00080315,0.014252l0 0.0531378 -0.0146654 0 0 -0.0525827c0,-0.00594488 -0.000555118,-0.0104173 -0.00169291,-0.0133898 -0.00114173,-0.00294488 -0.00316929,-0.00530315 -0.00605906,-0.00705512 -0.00291339,-0.00177559 -0.00630315,-0.00266535 -0.0102205,-0.00266535 -0.00624803,0 -0.0116102,0.002 -0.0161654,0.00594488 -0.00452756,0.00397244 -0.00677953,0.0114724 -0.00677953,0.0225551l0 0.0471929 -0.0146378 0z"/>
  <path id="123" class="fil2" d="M2.41221 7.78564l0 -0.0126929c-0.00674803,0.00977559 -0.0158898,0.0146378 -0.0274449,0.0146378 -0.00508268,0 -0.00985827,-0.000972441 -0.0142756,-0.00291732 -0.00441732,-0.00194488 -0.00769685,-0.00441732 -0.00983465,-0.0073622 -0.00216535,-0.00297244 -0.00366535,-0.00658268 -0.00452756,-0.0108583 -0.000582677,-0.00288976 -0.000889764,-0.00744488 -0.000889764,-0.0136969l0 -0.0535276 0.0146417 0 0 0.0479173c0,0.00766535 0.00030315,0.0128071 0.000885827,0.0154724 0.000944882,0.0038622 0.00288976,0.0068622 0.0058622,0.00908268 0.003,0.00219685 0.00669291,0.00327953 0.0110827,0.00327953 0.00438976,0 0.0085,-0.00111417 0.0123622,-0.0033622 0.0038622,-0.00225197 0.00658268,-0.00533465 0.00816535,-0.00919291 0.00161024,-0.00388976 0.00241732,-0.00952756 0.00241732,-0.0168898l0 -0.0463071 0.0146378 0 0 0.0864173 -0.0130827 0z"/>
  <polygon class="fil2" points="2.07055,6.99116 2.07055,6.95844 2.03808,6.95844 2.03808,6.94478 2.07055,6.94478 2.07055,6.9123 2.08438,6.9123 2.08438,6.94478 2.11685,6.94478 2.11685,6.95844 2.08438,6.95844 2.08438,6.99116 "/>
  <path class="fil2" d="M1.72109 8.5998l0.0140827 -0.00130709c0.00119685,0.00661024 0.00347244,0.0114173 0.00683465,0.0144173 0.0033622,0.00297244 0.00766535,0.00447244 0.0129449,0.00447244 0.0045,0 0.00844488,-0.00102756 0.0118346,-0.00311024 0.00338583,-0.00205512 0.00616535,-0.00480709 0.00833071,-0.00825197 0.00219685,-0.00344488 0.004,-0.00811024 0.00547244,-0.0139449 0.00144488,-0.00585827 0.00219291,-0.0118307 0.00219291,-0.0179134 0,-0.000641732 -2.75591e-005,-0.00164173 -8.26772e-005,-0.00291732 -0.00294488,0.0046378 -0.00694488,0.00844488 -0.012,0.0113307 -0.00508268,0.00291732 -0.0105827,0.0043622 -0.0164724,0.0043622 -0.00988583,0 -0.018248,-0.00358268 -0.0250827,-0.010748 -0.00683071,-0.00716929 -0.010248,-0.0165827 -0.010248,-0.0283071 0,-0.0121102 0.00355512,-0.0218307 0.0106929,-0.0292205 0.0071378,-0.00738976 0.0160827,-0.0110827 0.0268346,-0.0110827 0.00774803,0 0.0148307,0.00211024 0.0212756,0.00627559 0.00641732,0.00416535 0.0113071,0.0101378 0.0146417,0.0178622 0.00333071,0.00772047 0.005,0.0189173 0.005,0.0335827 0,0.0152205 -0.00164173,0.0273622 -0.00494488,0.0364173 -0.00333465,0.00902756 -0.00825197,0.0158858 -0.0147795,0.0206102 -0.00655512,0.00472047 -0.0141929,0.00708268 -0.023,0.00708268 -0.00933071,0 -0.0169449,-0.00258268 -0.0228583,-0.00777559 -0.00591732,-0.00516929 -0.00947244,-0.0124449 -0.0106693,-0.0218346zm0.0599724 -0.0526654c0,-0.00838976 -0.00222047,-0.0150827 -0.00669291,-0.02 -0.0045,-0.00494488 -0.0098622,-0.00741732 -0.0161693,-0.00741732 -0.0065,0 -0.0121654,0.00266535 -0.017,0.00797244 -0.00483071,0.00533071 -0.00724803,0.0122205 -0.00724803,0.0206654 0,0.00761024 0.00230709,0.0137795 0.00688976,0.0185276 0.00458268,0.00475197 0.0102205,0.00711024 0.0169449,0.00711024 0.00680315,0 0.0123583,-0.00235827 0.0167205,-0.00711024 0.00438976,-0.00474803 0.00655512,-0.0113346 0.00655512,-0.019748z"/>
  <path id="1" class="fil2" d="M1.85162 8.62738l-0.0462244 -0.119303 0.0171142 0 0.031 0.0866654c0.0025,0.00694488 0.00458268,0.0134724 0.00624803,0.0195276 0.0018622,-0.0065 0.004,-0.013 0.00644488,-0.0195276l0.0322205 -0.0866654 0.0161142 0 -0.0467244 0.119303 -0.0161929 0z"/>
  <path id="12" class="fil2" d="M1.9287 8.62738l0 -0.119303 0.0410827 0c0.00927559,0 0.0163583,0.000582677 0.021248,0.00172047 0.00683465,0.00155512 0.0126693,0.00441732 0.0175,0.00852756 0.00627953,0.00533465 0.011,0.0121102 0.0141102,0.0203898 0.00314173,0.00827559 0.00469685,0.0177205 0.00469685,0.0283622 0,0.00905512 -0.00105512,0.0170827 -0.00319685,0.0240827 -0.00211024,0.007 -0.00480315,0.0128031 -0.0081378,0.0173858 -0.00330315,0.00458661 -0.00691732,0.00819685 -0.0108622,0.0108071 -0.00391339,0.0026378 -0.00866535,0.0046378 -0.0142205,0.006 -0.00558268,0.0013622 -0.0119724,0.00202756 -0.0191654,0.00202756l-0.0430551 0zm0.0157756 -0.0140827l0.0254724 0c0.0078622,0 0.0140551,-0.000724409 0.0185276,-0.00219685 0.00447244,-0.0014685 0.00802756,-0.00352756 0.0106969,-0.00619291 0.00374803,-0.00372047 0.00666535,-0.00877559 0.00874803,-0.0150827 0.00208268,-0.00633465 0.0031378,-0.0139724 0.0031378,-0.023 0,-0.0124724 -0.00205512,-0.0220551 -0.0061378,-0.028748 -0.00411024,-0.00672441 -0.00908268,-0.0111969 -0.0149449,-0.0134724 -0.00422047,-0.00164173 -0.0110551,-0.00244488 -0.0204173,-0.00244488l-0.0250827 0 0 0.0911378z"/>
  <path id="123" class="fil2" d="M2.13417 8.58555l0.0158031 0.004c-0.00330315,0.0129449 -0.00927559,0.0228346 -0.0178583,0.0296693 -0.00861417,0.00680315 -0.0191142,0.0101929 -0.0315551,0.0101929 -0.0128622,0 -0.0233071,-0.00261024 -0.0313622,-0.00783465 -0.00805512,-0.00524803 -0.0141929,-0.0128307 -0.0183898,-0.022748 -0.00419291,-0.00994488 -0.00630315,-0.0206102 -0.00630315,-0.032 0,-0.0124173 0.00235827,-0.023248 0.00711024,-0.0325 0.00474803,-0.00924803 0.0115,-0.0162756 0.0202756,-0.0210827 0.00875197,-0.00480709 0.0183898,-0.00719291 0.0289173,-0.00719291 0.0119449,0 0.0219724,0.00302756 0.0301102,0.00911024 0.00814173,0.00608268 0.0138071,0.0146102 0.017,0.0256378l-0.0155276 0.00366535c-0.00277559,-0.00869291 -0.00677559,-0.015 -0.0120551,-0.0189724 -0.00524803,-0.00397244 -0.0118622,-0.00594094 -0.0198622,-0.00594094 -0.00916535,0 -0.0168031,0.00219291 -0.0229685,0.00658268 -0.00616929,0.00441732 -0.0105,0.0103031 -0.0129724,0.0177205 -0.0025,0.00738976 -0.00375197,0.0150276 -0.00375197,0.0228898 0,0.0101654 0.00147244,0.019 0.00441732,0.0265827 0.00297244,0.00755512 0.00755512,0.0132205 0.0138071,0.0169724 0.00624803,0.00374803 0.013,0.00561024 0.0202756,0.00561024 0.00883465,0 0.0163071,-0.00255512 0.0224449,-0.0076378 0.0061378,-0.00511024 0.0102756,-0.0126969 0.0124449,-0.0227244z"/>
  <path class="fil2" d="M8.53076 7.31312c0,-0.016 0.00444488,-0.0278622 0.0133622,-0.0355551 0.00741732,-0.00638976 0.0164724,-0.00961417 0.0271654,-0.00961417 0.0118898,0 0.0216102,0.00388976 0.0291378,0.0116969 0.00755512,0.00777559 0.0113071,0.0185276 0.0113071,0.032248 0,0.0111378 -0.00166929,0.0198898 -0.005,0.026252 -0.00333465,0.00638583 -0.00819685,0.0113307 -0.0145551,0.0148583 -0.00638976,0.00352756 -0.0133346,0.00527953 -0.0208898,0.00527953 -0.0120827,0 -0.0218622,-0.0038622 -0.0293346,-0.0116378 -0.00747244,-0.00775197 -0.0111929,-0.0189173 -0.0111929,-0.0335276zm0.0150551 0c0,0.0110827 0.00241732,0.0193583 0.00725197,0.0248583 0.00483071,0.00552756 0.0109134,0.00827953 0.0182205,0.00827953 0.00727953,0 0.0133346,-0.00277953 0.0181654,-0.00830709 0.00480709,-0.00552756 0.00722441,-0.0139724 0.00722441,-0.0253031 0,-0.0106969 -0.00241732,-0.0188071 -0.00727953,-0.0243071 -0.0048622,-0.0055 -0.0108898,-0.00824803 -0.0181102,-0.00824803 -0.00730709,0 -0.0133898,0.00274803 -0.0182205,0.00822047 -0.00483465,0.00547244 -0.00725197,0.013752 -0.00725197,0.0248071z"/>
  <path id="1" class="fil2" d="M8.62893 7.35634l0 -0.0864173 0.0131654 0 0 0.0122795c0.0063622,-0.0095 0.0155276,-0.014252 0.0275,-0.014252 0.00522441,0 0.01,0.000944882 0.0143622,0.00280709 0.00438976,0.00188976 0.0076378,0.00433465 0.00980709,0.00738976 0.00219291,0.00302756 0.00369291,0.0066378 0.00458268,0.0108031 0.000527559,0.00272441 0.00080315,0.00747244 0.00080315,0.014252l0 0.0531378 -0.0146654 0 0 -0.0525827c0,-0.00594488 -0.000555118,-0.0104173 -0.00169291,-0.0133898 -0.00114173,-0.00294488 -0.00316929,-0.00530315 -0.00605906,-0.00705512 -0.00291339,-0.00177559 -0.00630315,-0.00266535 -0.0102205,-0.00266535 -0.00624803,0 -0.0116102,0.002 -0.0161654,0.00594488 -0.00452756,0.00397244 -0.00677953,0.0114724 -0.00677953,0.0225551l0 0.0471929 -0.0146378 0z"/>
  <path class="fil2" d="M8.52406 6.75981c0,-0.016 0.00444488,-0.0278622 0.0133622,-0.0355551 0.00741732,-0.00638976 0.0164724,-0.00961417 0.0271654,-0.00961417 0.0118898,0 0.0216102,0.00388976 0.0291378,0.0116969 0.00755512,0.00777559 0.0113071,0.0185276 0.0113071,0.032248 0,0.0111378 -0.00166929,0.0198898 -0.005,0.026252 -0.00333465,0.00638583 -0.00819685,0.0113307 -0.0145551,0.0148583 -0.00638976,0.00352756 -0.0133346,0.00527953 -0.0208898,0.00527953 -0.0120827,0 -0.0218622,-0.0038622 -0.0293346,-0.0116378 -0.00747244,-0.00775197 -0.0111929,-0.0189173 -0.0111929,-0.0335276zm0.0150551 0c0,0.0110827 0.00241732,0.0193583 0.00725197,0.0248583 0.00483071,0.00552756 0.0109134,0.00827953 0.0182205,0.00827953 0.00727953,0 0.0133346,-0.00277953 0.0181654,-0.00830709 0.00480709,-0.00552756 0.00722441,-0.0139724 0.00722441,-0.0253031 0,-0.0106969 -0.00241732,-0.0188071 -0.00727953,-0.0243071 -0.0048622,-0.0055 -0.0108898,-0.00824803 -0.0181102,-0.00824803 -0.00730709,0 -0.0133898,0.00274803 -0.0182205,0.00822047 -0.00483465,0.00547244 -0.00725197,0.013752 -0.00725197,0.0248071z"/>
  <path id="1" class="fil2" d="M8.62569 6.80303l0 -0.0750276 -0.0129173 0 0 -0.0113898 0.0129173 0 0 -0.00919291c0,-0.00580709 0.000527559,-0.0101378 0.00155512,-0.0129449 0.00141732,-0.00380315 0.00388976,-0.00688976 0.00744488,-0.00924803 0.00355512,-0.0023622 0.00852756,-0.00352756 0.0149449,-0.00352756 0.00411024,0 0.00866535,0.000472441 0.0136654,0.00147244l-0.00219291 0.0127756c-0.00302756,-0.000555118 -0.00591732,-0.000834646 -0.00864173,-0.000834646 -0.00444094,0 -0.00758268,0.000944882 -0.00941339,0.0028622 -0.0018622,0.00188976 -0.00277953,0.00544488 -0.00277953,0.0106654l0 0.00797244 0.0168346 0 0 0.0113898 -0.0168346 0 0 0.0750276 -0.0145827 0z"/>
  <path id="12" class="fil2" d="M8.669 6.80303l0 -0.0750276 -0.0129173 0 0 -0.0113898 0.0129173 0 0 -0.00919291c0,-0.00580709 0.000527559,-0.0101378 0.00155512,-0.0129449 0.00141732,-0.00380315 0.00388976,-0.00688976 0.00744488,-0.00924803 0.00355512,-0.0023622 0.00852756,-0.00352756 0.0149449,-0.00352756 0.00411024,0 0.00866535,0.000472441 0.0136654,0.00147244l-0.00219291 0.0127756c-0.00302756,-0.000555118 -0.00591732,-0.000834646 -0.00864173,-0.000834646 -0.00444094,0 -0.00758268,0.000944882 -0.00941339,0.0028622 -0.0018622,0.00188976 -0.00277953,0.00544488 -0.00277953,0.0106654l0 0.00797244 0.0168346 0 0 0.0113898 -0.0168346 0 0 0.0750276 -0.0145827 0z"/>
  <path class="fil2" d="M8.32696 7.09135c-0.00544488,0.00461024 -0.0106693,0.00785827 -0.0156693,0.00977559 -0.00502756,0.00188976 -0.0104134,0.00283465 -0.0161654,0.00283465 -0.0095,0 -0.0167756,-0.00230709 -0.0218898,-0.00694488 -0.00508268,-0.0046378 -0.0076378,-0.0105827 -0.0076378,-0.0177795 0,-0.00424803 0.000944882,-0.00811024 0.00288976,-0.0116102 0.00191732,-0.0035 0.00444488,-0.00630315 0.00755512,-0.00841732 0.0031378,-0.00211024 0.0066378,-0.00372047 0.0105551,-0.00480315 0.0028622,-0.000751969 0.00719291,-0.0015 0.013,-0.00219685 0.0118346,-0.00141339 0.0205551,-0.00308268 0.0261378,-0.00505512 5.51181e-005,-0.002 8.26772e-005,-0.00327559 8.26772e-005,-0.00380315 0,-0.00597244 -0.00138583,-0.0101969 -0.00416535,-0.0126102 -0.00372047,-0.00333465 -0.00930709,-0.00497244 -0.0166654,-0.00497244 -0.00688976,0 -0.0119724,0.00119291 -0.0152795,0.00361024 -0.00327559,0.00241732 -0.00569291,0.00669291 -0.00727559,0.0128346l-0.0143071 -0.00197244c0.00130709,-0.00611417 0.00344488,-0.0110866 0.00641732,-0.0148346 0.00297244,-0.00377953 0.00730709,-0.00669291 0.0129449,-0.00872047 0.0056378,-0.0020315 0.0121654,-0.00305906 0.0196102,-0.00305906 0.00738976,0 0.0133622,0.000889764 0.0179724,0.00261417 0.00461024,0.00174803 0.008,0.00391339 0.0101929,0.00655512 0.00216929,0.0026378 0.00366929,0.00594488 0.00455512,0.00997244 0.000472441,0.0025 0.000724409,0.007 0.000724409,0.0135l0 0.0195276c0,0.0136378 0.00030315,0.022248 0.000944882,0.0258307 0.000610236,0.00361024 0.00185827,0.00708268 0.00369291,0.0103898l-0.0153071 0c-0.0015,-0.00302756 -0.0025,-0.00658268 -0.00291339,-0.0106654zm-0.00122441 -0.0327244c-0.00533071,0.00219685 -0.0133031,0.00402756 -0.0239173,0.00555512 -0.00602756,0.000862205 -0.0103031,0.00183465 -0.0127756,0.00291732 -0.0025,0.00108268 -0.00444488,0.00266929 -0.00577953,0.00477953 -0.00135827,0.00208268 -0.00205512,0.00438976 -0.00205512,0.00694488 0,0.00391339 0.0015,0.00716535 0.00444488,0.00977559 0.00294488,0.00258268 0.00727953,0.00388976 0.0129724,0.00388976 0.0056378,0 0.0106654,-0.00122047 0.0150551,-0.00369291 0.00438976,-0.00247244 0.0076378,-0.0058622 0.00969291,-0.0101417 0.00158661,-0.00330315 0.0023622,-0.00819291 0.0023622,-0.0146378l0 -0.00538976z"/>
  <polygon id="1" class="fil2" points="8.36293,7.10202 8.36293,6.98271 8.37757,6.98271 8.37757,7.10202 "/>
  <path id="12" class="fil2" d="M8.45668 7.09135c-0.00544488,0.00461024 -0.0106693,0.00785827 -0.0156693,0.00977559 -0.00502756,0.00188976 -0.0104134,0.00283465 -0.0161654,0.00283465 -0.0095,0 -0.0167756,-0.00230709 -0.0218898,-0.00694488 -0.00508268,-0.0046378 -0.0076378,-0.0105827 -0.0076378,-0.0177795 0,-0.00424803 0.000944882,-0.00811024 0.00288976,-0.0116102 0.00191732,-0.0035 0.00444488,-0.00630315 0.00755512,-0.00841732 0.0031378,-0.00211024 0.0066378,-0.00372047 0.0105551,-0.00480315 0.0028622,-0.000751969 0.00719291,-0.0015 0.013,-0.00219685 0.0118346,-0.00141339 0.0205551,-0.00308268 0.0261378,-0.00505512 5.51181e-005,-0.002 8.26772e-005,-0.00327559 8.26772e-005,-0.00380315 0,-0.00597244 -0.00138583,-0.0101969 -0.00416535,-0.0126102 -0.00372047,-0.00333465 -0.00930709,-0.00497244 -0.0166654,-0.00497244 -0.00688976,0 -0.0119724,0.00119291 -0.0152795,0.00361024 -0.00327559,0.00241732 -0.00569291,0.00669291 -0.00727559,0.0128346l-0.0143071 -0.00197244c0.00130709,-0.00611417 0.00344488,-0.0110866 0.00641732,-0.0148346 0.00297244,-0.00377953 0.00730709,-0.00669291 0.0129449,-0.00872047 0.0056378,-0.0020315 0.0121654,-0.00305906 0.0196102,-0.00305906 0.00738976,0 0.0133622,0.000889764 0.0179724,0.00261417 0.00461024,0.00174803 0.008,0.00391339 0.0101929,0.00655512 0.00216929,0.0026378 0.00366929,0.00594488 0.00455512,0.00997244 0.000472441,0.0025 0.000724409,0.007 0.000724409,0.0135l0 0.0195276c0,0.0136378 0.00030315,0.022248 0.000944882,0.0258307 0.000610236,0.00361024 0.00185827,0.00708268 0.00369291,0.0103898l-0.0153071 0c-0.0015,-0.00302756 -0.0025,-0.00658268 -0.00291339,-0.0106654zm-0.00122441 -0.0327244c-0.00533071,0.00219685 -0.0133031,0.00402756 -0.0239173,0.00555512 -0.00602756,0.000862205 -0.0103031,0.00183465 -0.0127756,0.00291732 -0.0025,0.00108268 -0.00444488,0.00266929 -0.00577953,0.00477953 -0.00135827,0.00208268 -0.00205512,0.00438976 -0.00205512,0.00694488 0,0.00391339 0.0015,0.00716535 0.00444488,0.00977559 0.00294488,0.00258268 0.00727953,0.00388976 0.0129724,0.00388976 0.0056378,0 0.0106654,-0.00122047 0.0150551,-0.00369291 0.00438976,-0.00247244 0.0076378,-0.0058622 0.00969291,-0.0101417 0.00158661,-0.00330315 0.0023622,-0.00819291 0.0023622,-0.0146378l0 -0.00538976z"/>
  <path id="123" class="fil2" d="M8.49281 7.10202l0 -0.0864173 0.0131654 0 0 0.0130827c0.0033622,-0.00611024 0.00647244,-0.0101654 0.00933465,-0.0121102 0.00283071,-0.00194488 0.00597244,-0.00294488 0.00938583,-0.00294488 0.00494488,0 0.00994488,0.00158661 0.0150551,0.00472441l-0.00505512 0.0136102c-0.00355512,-0.0021378 -0.0071378,-0.00319291 -0.0107205,-0.00319291 -0.00322441,0 -0.00608268,0.000972441 -0.0086378,0.00288583 -0.00255512,0.00194488 -0.0043622,0.00461417 -0.00544488,0.00802756 -0.0016378,0.00519685 -0.00244488,0.0108898 -0.00244488,0.0170866l0 0.045248 -0.0146378 0z"/>
  <path id="1234" class="fil2" d="M8.54848 7.10202l0 -0.0864173 0.0130827 0 0 0.0121142c0.00272441,-0.00422441 0.00633465,-0.00764173 0.0108346,-0.0101969 0.0045,-0.00258268 0.0096378,-0.00388976 0.0153898,-0.00388976 0.00638583,0 0.0116378,0.00133465 0.0157205,0.004 0.00411024,0.00266929 0.007,0.0063622 0.00866535,0.0111417 0.0068622,-0.0100866 0.015752,-0.0151417 0.0266969,-0.0151417 0.00858268,0 0.0151654,0.00238976 0.0197756,0.00714173 0.00461024,0.00474803 0.00691732,0.0120551 0.00691732,0.0219134l0 0.0593346 -0.0145551 0 0 -0.0544449c0,-0.00585827 -0.000472441,-0.0100827 -0.00141732,-0.0126654 -0.000972441,-0.00255512 -0.00269291,-0.0046378 -0.00516535,-0.00622441 -0.0025,-0.00155512 -0.00544488,-0.00235827 -0.00880709,-0.00235827 -0.00608268,0 -0.0111102,0.00202756 -0.0151378,0.00608268 -0.004,0.00402756 -0.00602756,0.0105 -0.00602756,0.0193898l0 0.0502205 -0.0146378 0 0 -0.0561378c0,-0.00652756 -0.00119685,-0.0114173 -0.00358661,-0.0146654 -0.00238583,-0.00325197 -0.00627559,-0.00488976 -0.0117205,-0.00488976 -0.00411024,0 -0.00791732,0.00108268 -0.0114173,0.00327559 -0.0035,0.00216929 -0.00605512,0.00533465 -0.00761024,0.0095 -0.00158268,0.00419685 -0.0023622,0.0102244 -0.0023622,0.0180827l0 0.0448346 -0.0146378 0z"/>
  <path class="fil2" d="M8.19723 8.31057l0.0107913 0.00141732c-0.00116929,0.00743701 -0.00418898,0.0132717 -0.00906299,0.0174803 -0.00485433,0.00420866 -0.0108346,0.00631102 -0.0179173,0.00631102 -0.00885433,0 -0.016,-0.0028937 -0.021374,-0.00868504 -0.00539764,-0.00579134 -0.0081063,-0.0141063 -0.0081063,-0.024937 0,-0.007 0.00116929,-0.013126 0.00348031,-0.018378 0.00233465,-0.00524803 0.00585433,-0.00918504 0.0106024,-0.011811 0.00473228,-0.00262598 0.00989764,-0.00393701 0.0154606,-0.00393701 0.00703937,0 0.012811,0.00179134 0.0172717,0.00535433 0.00447638,0.00356299 0.00735433,0.00860236 0.00862205,0.0151654l-0.010685 0.00164567c-0.00102362,-0.00435433 -0.00281496,-0.00762598 -0.00539764,-0.00983071 -0.00258268,-0.00218898 -0.00570866,-0.00329528 -0.00937402,-0.00329528 -0.00554331,0 -0.0100433,0.00198031 -0.0135,0.00596063 -0.00345669,0.00395669 -0.00518898,0.0102283 -0.00518898,0.018811 0,0.00870866 0.00166929,0.0150433 0.00502362,0.019 0.00333071,0.00393701 0.00768504,0.00591732 0.013063,0.00591732 0.00431102,0 0.0078937,-0.00133465 0.0107913,-0.00398031 0.0028937,-0.00264567 0.00472835,-0.00670866 0.0055,-0.0122087z"/>
  <path id="1" class="fil2" d="M8.21333 8.3019c0,-0.012 0.00333465,-0.0208937 0.0100197,-0.0266654 0.00556299,-0.00479134 0.0123543,-0.00720866 0.020378,-0.00720866 0.00891339,0 0.0162087,0.00291732 0.0218543,0.00877165 0.00566535,0.00583071 0.00847638,0.0138937 0.00847638,0.024185 0,0.00835433 -0.00124803,0.0149173 -0.00374803,0.019689 -0.0025,0.00479134 -0.00614567,0.0085 -0.0109173,0.0111457 -0.00479134,0.00264567 -0.01,0.00395669 -0.0156654,0.00395669 -0.00906299,0 -0.0163976,-0.0028937 -0.022,-0.00872835 -0.0056063,-0.00581102 -0.00839764,-0.014185 -0.00839764,-0.0251457zm0.0112913 0c0,0.00831496 0.00181496,0.0145197 0.00543701,0.0186457 0.00362598,0.00414567 0.00818898,0.00620866 0.0136693,0.00620866 0.00545669,0 0.01,-0.00208268 0.013622,-0.00622835 0.0036063,-0.00414567 0.00541732,-0.0104803 0.00541732,-0.0189803 0,-0.00801969 -0.00181102,-0.0141024 -0.00545669,-0.0182283 -0.00364567,-0.00412598 -0.00816929,-0.00618898 -0.0135827,-0.00618898 -0.00548031,0 -0.0100433,0.00206299 -0.0136693,0.00616929 -0.00362205,0.00410236 -0.00543701,0.010311 -0.00543701,0.0186024z"/>
  <path id="12" class="fil2" d="M8.28696 8.33432l0 -0.064811 0.00987402 0 0 0.00920866c0.00477165,-0.00712598 0.0116457,-0.010689 0.020626,-0.010689 0.00391339,0 0.0075,0.000708661 0.0107677,0.00210236 0.00329134,0.00141732 0.00573228,0.00325197 0.00735433,0.00554331 0.00164567,0.00227165 0.00277165,0.00498031 0.00343701,0.00810236 0.000397638,0.00204331 0.000606299,0.0056063 0.000606299,0.010689l0 0.0398543 -0.011 0 0 -0.039437c0,-0.00446063 -0.000417323,-0.00781496 -0.00127165,-0.0100433 -0.000854331,-0.00220866 -0.00237402,-0.00397638 -0.00454331,-0.00529134 -0.00218504,-0.00133071 -0.00472835,-0.002 -0.00766535,-0.002 -0.00468504,0 -0.00870866,0.0015 -0.012126,0.00446063 -0.0033937,0.00297638 -0.00508268,0.00860236 -0.00508268,0.0169134l0 0.0353976 -0.0109764 0z"/>
  <path id="123" class="fil2" d="M8.38045 8.32448l0.00158268 0.00970866c-0.00308268,0.000645669 -0.00585433,0.000980315 -0.00829134,0.000980315 -0.004,0 -0.00708268,-0.000625984 -0.00929134,-0.00189764 -0.00218504,-0.00124803 -0.00372835,-0.00291339 -0.00462598,-0.00497638 -0.000893701,-0.00204331 -0.00135039,-0.00637795 -0.00135039,-0.0129606l0 -0.0372913 -0.00806299 0 0 -0.00853937 0.00806299 0 0 -0.016063 0.010937 -0.00658268 0 0.0226457 0.0110394 0 0 0.00853937 -0.0110394 0 0 0.0378976c0,0.00314567 0.000185039,0.00514567 0.000562992,0.00603937 0.000393701,0.000897638 0.00101969,0.0016063 0.0018937,0.00214567 0.000874016,0.000523622 0.00212598,0.000791339 0.00375197,0.000791339 0.00122835,0 0.00283071,-0.000145669 0.00483071,-0.000437008z"/>
  <path id="1234" class="fil2" d="M8.39108 8.33432l0 -0.064811 0.00987402 0 0 0.00981102c0.00251969,-0.00458268 0.00485433,-0.00762598 0.007,-0.00908268 0.00212598,-0.00146063 0.00448031,-0.00220866 0.00704331,-0.00220866 0.00370866,0 0.00745669,0.00118898 0.0112913,0.00353937l-0.00379134 0.0102087c-0.00266929,-0.00160236 -0.00535433,-0.0023937 -0.00804331,-0.0023937 -0.00241732,0 -0.00456299,0.000728346 -0.00648031,0.00216535 -0.00191732,0.00146063 -0.00326772,0.00346063 -0.00408268,0.00601969 -0.00122835,0.00389764 -0.00183465,0.00816929 -0.00183465,0.012815l0 0.033937 -0.0109764 0z"/>
  <path id="12345" class="fil2" d="M8.47512 8.32632c-0.00408661,0.00345669 -0.008,0.00589764 -0.011752,0.00733465 -0.00377165,0.00141732 -0.00781102,0.00212205 -0.012126,0.00212205 -0.00712205,0 -0.0125827,-0.00172835 -0.0164134,-0.00520866 -0.00381496,-0.00347638 -0.00573228,-0.00793701 -0.00573228,-0.0133307 0,-0.00318898 0.000708661,-0.00608268 0.00216929,-0.00870866 0.00143701,-0.00262598 0.00333071,-0.00472835 0.00566535,-0.00631102 0.00235433,-0.00158661 0.00498031,-0.00279528 0.00791732,-0.0036063 0.00214567,-0.000562992 0.0053937,-0.00112598 0.00974803,-0.00164567 0.00887795,-0.00106299 0.0154173,-0.00231102 0.0196063,-0.00379134 3.93701e-005,-0.0015 6.29921e-005,-0.00245669 6.29921e-005,-0.00285433 0,-0.00448031 -0.00104331,-0.00764567 -0.00312598,-0.00945669 -0.00279134,-0.0025 -0.00698031,-0.00373228 -0.0125,-0.00373228 -0.00516535,0 -0.00898031,0.000897638 -0.0114606,0.00270866 -0.00245669,0.00181496 -0.00426772,0.00502362 -0.00545669,0.00962598l-0.0107283 -0.00148031c0.000980315,-0.00458268 0.00258268,-0.00831102 0.00481102,-0.011122 0.00222835,-0.00283465 0.00548031,-0.00502362 0.00970866,-0.00654331 0.00422835,-0.00151969 0.00912598,-0.00229134 0.0147087,-0.00229134 0.00554331,0 0.0100197,0.000665354 0.0134803,0.00195669 0.00345669,0.00131496 0.006,0.00293701 0.00764567,0.00491732 0.00162598,0.00198031 0.00274803,0.00446063 0.00341732,0.00748031 0.000354331,0.00187402 0.00053937,0.00524803 0.00053937,0.010126l0 0.0146457c0,0.0102283 0.000228346,0.016685 0.000708661,0.019374 0.00046063,0.00270866 0.00139764,0.00531102 0.00277165,0.00779134l-0.0114803 0c-0.00112598,-0.00227165 -0.00187402,-0.00493701 -0.00218504,-0.008zm-0.000917323 -0.0245433c-0.004,0.00164567 -0.00998031,0.00302362 -0.017937,0.00416929 -0.00452362,0.000645669 -0.00773228,0.00137402 -0.00958661,0.00218504 -0.00187402,0.000814961 -0.00333071,0.002 -0.00433071,0.00358661 -0.00101969,0.00155906 -0.00154331,0.00329134 -0.00154331,0.00520472 0,0.00294094 0.00112598,0.00537795 0.00333465,0.00733465 0.00220866,0.00193701 0.00545669,0.00291732 0.00972835,0.00291732 0.00422835,0 0.008,-0.000917323 0.0112913,-0.00277165 0.00329134,-0.00185433 0.00572835,-0.0043937 0.00727165,-0.00760236 0.00118898,-0.00248031 0.00177165,-0.00614567 0.00177165,-0.0109803l0 -0.00404331z"/>
  <path id="123456" class="fil2" d="M8.49795 8.31496l0.0108543 -0.00170866c0.000602362,0.00435433 0.00231102,0.00768898 0.00510236,0.0100197 0.00277165,0.00231496 0.00666929,0.00348031 0.011689,0.00348031 0.00504331,0 0.00879134,-0.00103937 0.0112283,-0.00308268 0.00243701,-0.00206299 0.00366929,-0.00448031 0.00366929,-0.00722835 0,-0.0025 -0.00108661,-0.00443701 -0.00325197,-0.00587795 -0.0015,-0.000976378 -0.00524803,-0.00220472 -0.0112283,-0.00370472 -0.00804331,-0.00204331 -0.0136457,-0.00379528 -0.016752,-0.00529528 -0.00310236,-0.00147638 -0.00547638,-0.00353937 -0.00708268,-0.00616535 -0.00160236,-0.00262598 -0.00241732,-0.00551969 -0.00241732,-0.00868504 0,-0.00289764 0.000669291,-0.00556299 0.002,-0.00802362 0.00131496,-0.00247638 0.00312598,-0.00451969 0.00539764,-0.00614567 0.00170866,-0.00124803 0.00403937,-0.00233071 0.00698031,-0.00320866 0.00295669,-0.000874016 0.00612205,-0.00131102 0.0095,-0.00131102 0.00508268,0 0.00953937,0.000748031 0.0133937,0.00220866 0.00385433,0.00145669 0.00668898,0.00343701 0.00851969,0.00593701 0.00183465,0.00251969 0.00308661,0.00585433 0.00377165,0.0100433l-0.0107283 0.00147638c-0.0005,-0.00333071 -0.00191732,-0.00593701 -0.00424803,-0.00781102 -0.00233465,-0.00187402 -0.00564961,-0.00281496 -0.00991732,-0.00281496 -0.00504331,0 -0.00864567,0.000834646 -0.0107913,0.0025 -0.00216929,0.00166929 -0.00325197,0.00362598 -0.00325197,0.00585433 0,0.00144094 0.00046063,0.00270866 0.00135433,0.00385433 0.000897638,0.00118898 0.00229134,0.00214567 0.00420866,0.00294094 0.00110236,0.000393701 0.00433465,0.00133071 0.00970866,0.00279134 0.00777165,0.00208268 0.013189,0.00376772 0.016248,0.00510236 0.00308661,0.00131102 0.0055,0.00325197 0.00725197,0.00577165 0.00174803,0.00251969 0.00262598,0.00564567 0.00262598,0.0093937 0,0.00366929 -0.00108661,0.0071063 -0.00320866,0.0103543 -0.00214567,0.00323228 -0.00522835,0.00573228 -0.00925197,0.0075 -0.00401969,0.00177165 -0.00858268,0.00264567 -0.0136654,0.00264567 -0.00843701,0 -0.0148543,-0.00174803 -0.0192717,-0.00524803 -0.00441732,-0.0035 -0.00722835,-0.00868898 -0.00843701,-0.015563z"/>
  <path id="1234567" class="fil2" d="M8.58883 8.32448l0.00158268 0.00970866c-0.00308268,0.000645669 -0.00585433,0.000980315 -0.00829134,0.000980315 -0.004,0 -0.00708268,-0.000625984 -0.00929134,-0.00189764 -0.00218504,-0.00124803 -0.00372835,-0.00291339 -0.00462598,-0.00497638 -0.000893701,-0.00204331 -0.00135039,-0.00637795 -0.00135039,-0.0129606l0 -0.0372913 -0.00806299 0 0 -0.00853937 0.00806299 0 0 -0.016063 0.010937 -0.00658268 0 0.0226457 0.0110394 0 0 0.00853937 -0.0110394 0 0 0.0378976c0,0.00314567 0.000185039,0.00514567 0.000562992,0.00603937 0.000393701,0.000897638 0.00101969,0.0016063 0.0018937,0.00214567 0.000874016,0.000523622 0.00212598,0.000791339 0.00375197,0.000791339 0.00122835,0 0.00283071,-0.000145669 0.00483071,-0.000437008z"/>
  <rect class="fil0 str0" x="8.74386" y="6.84649" width="0.217134" height="0.393701" rx="0.0325709" ry="0.0325709"/>
  <circle class="fil0 str0" cx="8.81756" cy="7.40905" r="0.1"/>
  <circle class="fil0 str0" cx="1.92317" cy="8.27962" r="0.187498"/>
 </g>
</svg>
